M48
; DRILL file {KiCad 9.0.2} date 2025-07-05T21:47:06-0700
; FORMAT={-:-/ absolute / metric / decimal}
; #@! TF.CreationDate,2025-07-05T21:47:06-07:00
; #@! TF.GenerationSoftware,Kicad,Pcbnew,9.0.2
; #@! TF.FileFunction,Plated,1,2,PTH
FMAT,2
METRIC
; #@! TA.AperFunction,Plated,PTH,ViaDrill
T1C0.300
; #@! TA.AperFunction,Plated,PTH,ComponentDrill
T2C0.700
; #@! TA.AperFunction,Plated,PTH,ComponentDrill
T3C0.889
; #@! TA.AperFunction,Plated,PTH,ComponentDrill
T4C1.210
; #@! TA.AperFunction,Plated,PTH,ComponentDrill
T5C1.500
%
G90
G05
T1
X141.4Y-111.8
X141.4Y-113.4
X141.6Y-121.2
X141.6Y-122.6
T2
X125.4Y-115.46
X125.4Y-120.54
X125.4Y-123.66
X125.4Y-128.74
X131.2Y-115.46
X131.2Y-120.54
X131.2Y-123.66
X131.2Y-128.74
T3
X150.98Y-96.148
X150.98Y-98.688
X150.98Y-101.228
X150.98Y-103.768
X150.98Y-106.308
X150.98Y-108.849
X150.98Y-111.388
X166.22Y-96.148
X166.22Y-98.688
X166.22Y-101.228
X166.22Y-103.768
X166.22Y-106.308
X166.22Y-108.849
X166.22Y-111.388
T4
X117.45Y-126.2
X117.498Y-118.011
X119.99Y-126.2
X120.038Y-118.011
X137.185Y-118.011
X137.185Y-126.2
X139.725Y-118.011
X139.725Y-126.2
T5
X114.91Y-138.86
X114.965Y-100.271
X121.26Y-136.32
X121.315Y-97.731
X133.91Y-138.86
X134.045Y-100.271
X140.26Y-136.32
X140.395Y-97.731
M30
